<start> <duration> <pitch> <velocity> <instrument>
0 163 40 110 2337
0 163 57 110 2337
0 163 57 110 284
0 444 33 110 545
166 163 64 110 284
166 163 36 110 2337
333 163 62 110 284
333 163 36 110 2337
333 163 59 110 2337
499 445 33 110 545
499 164 40 110 2337
499 164 64 110 284
666 163 36 110 2337
666 163 67 110 284
666 163 59 110 2337
833 163 64 110 284
833 163 36 110 2337
999 164 40 110 2337
999 278 33 110 545
999 164 59 110 2337
999 164 62 110 284
1166 163 64 110 284
1166 163 36 110 2337
1333 163 40 110 2337
1333 444 33 110 545
1333 163 59 110 2337
1333 163 57 110 284
1499 164 64 110 284
1499 164 36 110 2337
1666 163 62 110 284
1666 163 36 110 2337
1666 163 59 110 2337
1833 444 33 110 545
1833 163 40 110 2337
1833 163 64 110 284
1999 164 36 110 2337
1999 164 67 110 284
1999 164 59 110 2337
2166 163 64 110 284
2166 163 36 110 2337
2333 163 40 110 2337
2333 278 33 110 545
2333 163 59 110 2337
2333 163 62 110 284
2499 164 64 110 284
2499 164 36 110 2337
2666 163 40 110 2337
2666 445 36 110 545
2666 163 59 110 2337
2666 163 60 110 284
2833 163 64 110 284
2833 163 36 110 2337
2999 164 62 110 284
2999 164 36 110 2337
2999 164 59 110 2337
3166 445 36 110 545
3166 163 40 110 2337
3166 163 64 110 284
3333 163 36 110 2337
3333 163 67 110 284
3333 163 59 110 2337
3499 164 64 110 284
3499 164 36 110 2337
3666 163 40 110 2337
3666 278 36 110 545
3666 163 59 110 2337
3666 163 62 110 284
3833 163 64 110 284
3833 163 36 110 2337
3999 164 40 110 2337
3999 445 28 110 545
3999 164 59 110 2337
3999 164 59 110 284
4166 163 64 110 284
4166 163 36 110 2337
4333 163 62 110 284
4333 163 36 110 2337
4333 163 59 110 2337
4499 445 28 110 545
4499 164 40 110 2337
4499 164 64 110 284
4666 163 36 110 2337
4666 163 67 110 284
4666 163 59 110 2337
4833 163 64 110 284
4833 163 36 110 2337
4999 164 40 110 2337
4999 278 28 110 545
4999 164 59 110 2337
4999 164 62 110 284
5166 163 64 110 284
5166 80 40 110 2337
5249 80 45 110 2337
5333 163 40 110 2337
5333 444 33 110 545
5333 163 57 110 2337
5333 163 57 110 284
5499 164 64 110 284
5499 164 36 110 2337
5666 163 62 110 284
5666 163 36 110 2337
5666 163 59 110 2337
5833 444 33 110 545
5833 163 40 110 2337
5833 163 64 110 284
5999 164 36 110 2337
5999 164 67 110 284
5999 164 59 110 2337
6166 163 64 110 284
6166 163 36 110 2337
6333 163 40 110 2337
6333 278 33 110 545
6333 163 59 110 2337
6333 163 62 110 284
6499 164 64 110 284
6499 164 36 110 2337
6666 163 40 110 2337
6666 445 33 110 545
6666 163 59 110 2337
6666 163 57 110 284
6833 163 64 110 284
6833 163 36 110 2337
6999 164 62 110 284
6999 164 36 110 2337
6999 164 59 110 2337
7166 445 33 110 545
7166 163 40 110 2337
7166 163 64 110 284
7333 163 36 110 2337
7333 163 67 110 284
7333 163 59 110 2337
7499 164 64 110 284
7499 164 36 110 2337
7666 163 40 110 2337
7666 278 33 110 545
7666 163 59 110 2337
7666 163 62 110 284
7833 163 64 110 284
7833 163 36 110 2337
7999 164 40 110 2337
7999 445 36 110 545
7999 164 59 110 2337
7999 164 60 110 284
8166 163 64 110 284
8166 163 36 110 2337
8333 163 62 110 284
8333 163 36 110 2337
8333 163 59 110 2337
8499 445 36 110 545
8499 164 40 110 2337
8499 164 64 110 284
8666 163 36 110 2337
8666 163 67 110 284
8666 163 59 110 2337
8833 163 64 110 284
8833 163 36 110 2337
8999 164 40 110 2337
8999 278 36 110 545
8999 164 59 110 2337
8999 164 62 110 284
9166 163 64 110 284
9166 163 36 110 2337
9333 163 40 110 2337
9333 444 28 110 545
9333 163 59 110 2337
9333 163 59 110 284
9499 164 64 110 284
9499 164 36 110 2337
9666 163 62 110 284
9666 163 36 110 2337
9666 163 59 110 2337
9833 444 28 110 545
9833 163 40 110 2337
9833 163 64 110 284
9999 164 36 110 2337
9999 164 67 110 284
9999 164 59 110 2337
10166 163 64 110 284
10166 163 36 110 2337
10333 163 40 110 2337
10333 278 28 110 545
10333 163 59 110 2337
10333 163 62 110 284
10499 164 64 110 284
10499 80 40 110 2337
10583 80 45 110 2337
10666 163 40 110 2337
10666 2497 72 110 29
10666 163 57 110 2337
10666 445 33 110 545
10666 163 57 110 284
10833 163 64 110 284
10833 163 36 110 2337
10999 164 62 110 284
10999 164 36 110 2337
10999 164 59 110 2337
11166 445 33 110 545
11166 163 40 110 2337
11166 163 64 110 284
11333 163 36 110 2337
11333 163 67 110 284
11333 163 59 110 2337
11499 164 64 110 284
11499 164 36 110 2337
11666 163 40 110 2337
11666 278 33 110 545
11666 163 59 110 2337
11666 163 62 110 284
11833 163 64 110 284
11833 163 36 110 2337
11999 164 40 110 2337
11999 445 33 110 545
11999 164 59 110 2337
11999 164 57 110 284
12166 163 64 110 284
12166 163 36 110 2337
12333 163 62 110 284
12333 163 36 110 2337
12333 163 59 110 2337
12499 445 33 110 545
12499 164 40 110 2337
12499 164 64 110 284
12666 163 36 110 2337
12666 163 67 110 284
12666 163 59 110 2337
12833 163 64 110 284
12833 163 36 110 2337
12999 164 40 110 2337
12999 278 33 110 545
12999 164 59 110 2337
12999 164 62 110 284
13166 163 36 110 2337
13166 80 69 110 29
13166 163 64 110 284
13249 80 71 110 29
13333 163 40 110 2337
13333 1250 72 110 29
13333 163 59 110 2337
13333 444 36 110 545
13333 163 60 110 284
13499 164 64 110 284
13499 164 36 110 2337
13666 163 62 110 284
13666 163 36 110 2337
13666 163 59 110 2337
13833 444 36 110 545
13833 163 40 110 2337
13833 163 64 110 284
13999 164 36 110 2337
13999 164 67 110 284
13999 164 59 110 2337
14166 163 64 110 284
14166 163 36 110 2337
14333 163 40 110 2337
14333 278 36 110 545
14333 163 59 110 2337
14333 163 62 110 284
14499 164 64 110 284
14499 164 36 110 2337
14666 163 40 110 2337
14666 583 71 110 29
14666 163 59 110 2337
14666 445 28 110 545
14666 163 59 110 284
14833 163 64 110 284
14833 163 36 110 2337
14999 164 62 110 284
14999 164 36 110 2337
14999 164 59 110 2337
15166 445 28 110 545
15166 163 40 110 2337
15166 163 64 110 284
15333 163 36 110 2337
15333 278 67 110 29
15333 163 59 110 2337
15333 163 67 110 284
15499 164 64 110 284
15499 164 36 110 2337
15666 163 40 110 2337
15666 163 64 110 29
15666 163 59 110 2337
15666 278 28 110 545
15666 163 62 110 284
15833 80 40 110 2337
15833 163 67 110 29
15833 163 64 110 284
15916 80 40 110 2337
15999 164 40 110 2337
15999 2584 69 110 29
15999 164 57 110 2337
15999 445 33 110 545
15999 164 57 110 284
16166 163 64 110 284
16166 163 36 110 2337
16333 163 62 110 284
16333 163 36 110 2337
16333 163 59 110 2337
16499 445 33 110 545
16499 164 40 110 2337
16499 164 64 110 284
16666 163 36 110 2337
16666 163 67 110 284
16666 163 59 110 2337
16833 163 64 110 284
16833 163 36 110 2337
16999 164 40 110 2337
16999 278 33 110 545
16999 164 59 110 2337
16999 164 62 110 284
17166 163 64 110 284
17166 163 36 110 2337
17333 163 40 110 2337
17333 444 33 110 545
17333 163 59 110 2337
17333 163 57 110 284
17499 164 64 110 284
17499 164 36 110 2337
17666 163 62 110 284
17666 163 36 110 2337
17666 163 59 110 2337
17833 444 33 110 545
17833 163 40 110 2337
17833 163 64 110 284
17999 164 36 110 2337
17999 164 67 110 284
17999 164 59 110 2337
18166 163 64 110 284
18166 163 36 110 2337
18333 163 40 110 2337
18333 278 33 110 545
18333 163 59 110 2337
18333 163 62 110 284
18499 164 64 110 284
18499 164 36 110 2337
18666 163 40 110 2337
18666 445 36 110 545
18666 163 59 110 2337
18666 163 60 110 284
18833 163 64 110 284
18833 163 36 110 2337
18999 164 62 110 284
18999 164 36 110 2337
18999 164 59 110 2337
19166 445 36 110 545
19166 163 40 110 2337
19166 163 64 110 284
19333 163 36 110 2337
19333 163 67 110 284
19333 163 59 110 2337
19499 164 64 110 284
19499 164 36 110 2337
19666 163 40 110 2337
19666 278 36 110 545
19666 163 59 110 2337
19666 163 62 110 284
19833 163 64 110 284
19833 163 36 110 2337
19999 164 40 110 2337
19999 445 28 110 545
19999 164 59 110 2337
19999 164 59 110 284
20166 163 64 110 284
20166 163 36 110 2337
20333 163 62 110 284
20333 163 36 110 2337
20333 163 59 110 2337
20499 445 28 110 545
20499 164 40 110 2337
20499 164 64 110 284
20666 163 36 110 2337
20666 163 67 110 284
20666 163 59 110 2337
20833 163 64 110 284
20833 163 36 110 2337
20999 164 40 110 2337
20999 278 28 110 545
20999 164 59 110 2337
20999 164 62 110 284
21166 163 64 110 284
21166 80 40 110 2337
21249 80 40 110 2337
21333 163 40 110 2337
21333 2496 72 110 29
21333 163 57 110 2337
21333 444 29 110 545
21333 163 57 110 284
21499 164 64 110 284
21499 164 36 110 2337
21666 163 62 110 284
21666 163 36 110 2337
21666 163 59 110 2337
21833 444 29 110 545
21833 163 40 110 2337
21833 163 64 110 284
21999 164 36 110 2337
21999 164 67 110 284
21999 164 59 110 2337
22166 163 64 110 284
22166 163 36 110 2337
22333 163 40 110 2337
22333 278 29 110 545
22333 163 59 110 2337
22333 163 62 110 284
22499 164 64 110 284
22499 164 36 110 2337
22666 163 40 110 2337
22666 445 29 110 545
22666 163 59 110 2337
22666 163 57 110 284
22833 163 64 110 284
22833 163 36 110 2337
22999 164 62 110 284
22999 164 36 110 2337
22999 164 59 110 2337
23166 445 29 110 545
23166 163 40 110 2337
23166 163 64 110 284
23333 163 36 110 2337
23333 163 67 110 284
23333 163 59 110 2337
23499 164 64 110 284
23499 164 36 110 2337
23666 163 40 110 2337
23666 278 29 110 545
23666 163 59 110 2337
23666 163 62 110 284
23833 163 36 110 2337
23833 80 69 110 29
23833 163 64 110 284
23916 80 71 110 29
23999 164 40 110 2337
23999 1250 72 110 29
23999 164 59 110 2337
23999 445 29 110 545
23999 164 57 110 284
24166 163 64 110 284
24166 163 36 110 2337
24333 163 62 110 284
24333 163 36 110 2337
24333 163 59 110 2337
24499 445 29 110 545
24499 164 40 110 2337
24499 164 64 110 284
24666 163 36 110 2337
24666 163 67 110 284
24666 163 59 110 2337
24833 163 64 110 284
24833 163 36 110 2337
24999 164 40 110 2337
24999 278 29 110 545
24999 164 59 110 2337
24999 164 62 110 284
25166 163 64 110 284
25166 163 36 110 2337
25333 163 40 110 2337
25333 583 71 110 29
25333 163 59 110 2337
25333 444 31 110 545
25333 163 59 110 284
25499 164 64 110 284
25499 164 36 110 2337
25666 163 62 110 284
25666 163 36 110 2337
25666 163 59 110 2337
25833 444 31 110 545
25833 163 40 110 2337
25833 163 64 110 284
25999 164 36 110 2337
25999 278 72 110 29
25999 164 59 110 2337
25999 164 67 110 284
26166 163 64 110 284
26166 163 36 110 2337
26333 163 40 110 2337
26333 278 74 110 29
26333 163 59 110 2337
26333 278 31 110 545
26333 163 62 110 284
26499 164 64 110 284
26499 80 40 110 2337
26583 80 40 110 2337
26666 163 40 110 2337
26666 2583 76 110 29
26666 163 57 110 2337
26666 445 33 110 545
26666 163 57 110 284
26833 163 64 110 284
26833 163 36 110 2337
26999 164 62 110 284
26999 164 36 110 2337
26999 164 59 110 2337
27166 445 33 110 545
27166 163 40 110 2337
27166 163 64 110 284
27333 163 36 110 2337
27333 163 67 110 284
27333 163 59 110 2337
27499 164 64 110 284
27499 164 36 110 2337
27666 163 40 110 2337
27666 278 33 110 545
27666 163 59 110 2337
27666 163 62 110 284
27833 163 64 110 284
27833 163 36 110 2337
27999 164 40 110 2337
27999 445 33 110 545
27999 164 59 110 2337
27999 164 57 110 284
28166 163 64 110 284
28166 163 36 110 2337
28333 163 62 110 284
28333 163 36 110 2337
28333 163 59 110 2337
28499 445 33 110 545
28499 164 40 110 2337
28499 164 64 110 284
28666 163 36 110 2337
28666 163 67 110 284
28666 163 59 110 2337
28833 163 64 110 284
28833 163 36 110 2337
28999 164 40 110 2337
28999 278 33 110 545
28999 164 59 110 2337
28999 164 62 110 284
29166 163 64 110 284
29166 163 36 110 2337
29333 163 40 110 2337
29333 444 36 110 545
29333 163 59 110 2337
29333 163 60 110 284
29499 164 64 110 284
29499 164 36 110 2337
29666 163 62 110 284
29666 163 36 110 2337
29666 163 59 110 2337
29833 444 36 110 545
29833 163 40 110 2337
29833 163 64 110 284
29999 164 36 110 2337
29999 164 67 110 284
29999 164 59 110 2337
30166 163 64 110 284
30166 163 36 110 2337
30333 163 40 110 2337
30333 278 36 110 545
30333 163 59 110 2337
30333 163 62 110 284
30499 164 64 110 284
30499 164 36 110 2337
30666 163 40 110 2337
30666 445 28 110 545
30666 163 59 110 2337
30666 163 59 110 284
30833 163 64 110 284
30833 163 36 110 2337
30999 164 62 110 284
30999 164 36 110 2337
30999 164 59 110 2337
31166 445 28 110 545
31166 163 40 110 2337
31166 163 64 110 284
31333 163 36 110 2337
31333 163 67 110 284
31333 163 59 110 2337
31499 164 64 110 284
31499 164 36 110 2337
31666 163 40 110 2337
31666 278 28 110 545
31666 163 59 110 2337
31666 163 62 110 284
31833 163 64 110 284
31833 80 40 110 2337
31916 80 40 110 2337
31999 164 40 110 2337
31999 2497 72 110 29
31999 164 57 110 2337
31999 445 33 110 545
31999 164 57 110 284
32166 163 64 110 284
32166 163 36 110 2337
32333 163 62 110 284
32333 163 36 110 2337
32333 163 59 110 2337
32499 445 33 110 545
32499 164 40 110 2337
32499 164 64 110 284
32666 163 36 110 2337
32666 163 67 110 284
32666 163 59 110 2337
32833 163 64 110 284
32833 163 36 110 2337
32999 164 40 110 2337
32999 278 33 110 545
32999 164 59 110 2337
32999 164 62 110 284
33166 163 64 110 284
33166 163 36 110 2337
33333 163 40 110 2337
33333 444 33 110 545
33333 163 59 110 2337
33333 163 57 110 284
33499 164 64 110 284
33499 164 36 110 2337
33666 163 62 110 284
33666 163 36 110 2337
33666 163 59 110 2337
33833 444 33 110 545
33833 163 40 110 2337
33833 163 64 110 284
33999 164 36 110 2337
33999 164 67 110 284
33999 164 59 110 2337
34166 163 64 110 284
34166 163 36 110 2337
34333 163 40 110 2337
34333 278 33 110 545
34333 163 59 110 2337
34333 163 62 110 284
34499 164 36 110 2337
34499 80 69 110 29
34499 164 64 110 284
34583 80 71 110 29
34666 163 40 110 2337
34666 1250 72 110 29
34666 163 59 110 2337
34666 445 36 110 545
34666 163 60 110 284
34833 163 64 110 284
34833 163 36 110 2337
34999 164 62 110 284
34999 164 36 110 2337
34999 164 59 110 2337
35166 445 36 110 545
35166 163 40 110 2337
35166 163 64 110 284
35333 163 36 110 2337
35333 163 67 110 284
35333 163 59 110 2337
35499 164 64 110 284
35499 164 36 110 2337
35666 163 40 110 2337
35666 278 36 110 545
35666 163 59 110 2337
35666 163 62 110 284
35833 163 64 110 284
35833 163 36 110 2337
35999 164 40 110 2337
35999 584 71 110 29
35999 164 59 110 2337
35999 445 28 110 545
35999 164 59 110 284
36166 163 64 110 284
36166 163 36 110 2337
36333 163 62 110 284
36333 163 36 110 2337
36333 163 59 110 2337
36499 445 28 110 545
36499 164 40 110 2337
36499 164 64 110 284
36666 163 36 110 2337
36666 278 67 110 29
36666 163 59 110 2337
36666 163 67 110 284
36833 163 64 110 284
36833 163 36 110 2337
36999 164 40 110 2337
36999 164 64 110 29
36999 164 59 110 2337
36999 278 28 110 545
36999 164 62 110 284
37166 80 40 110 2337
37166 163 67 110 29
37166 163 64 110 284
37249 80 40 110 2337
37333 163 40 110 2337
37333 2583 69 110 29
37333 163 57 110 2337
37333 444 33 110 545
37333 163 57 110 284
37499 164 64 110 284
37499 164 36 110 2337
37666 163 62 110 284
37666 163 36 110 2337
37666 163 59 110 2337
37833 444 33 110 545
37833 163 40 110 2337
37833 163 64 110 284
37999 164 36 110 2337
37999 164 67 110 284
37999 164 59 110 2337
38166 163 64 110 284
38166 163 36 110 2337
38333 163 40 110 2337
38333 278 33 110 545
38333 163 59 110 2337
38333 163 62 110 284
38499 164 64 110 284
38499 164 36 110 2337
38666 163 40 110 2337
38666 445 33 110 545
38666 163 59 110 2337
38666 163 57 110 284
38833 163 64 110 284
38833 163 36 110 2337
38999 164 62 110 284
38999 164 36 110 2337
38999 164 59 110 2337
39166 445 33 110 545
39166 163 40 110 2337
39166 163 64 110 284
39333 163 36 110 2337
39333 163 67 110 284
39333 163 59 110 2337
39499 164 64 110 284
39499 164 36 110 2337
39666 163 40 110 2337
39666 278 33 110 545
39666 163 59 110 2337
39666 163 62 110 284
39833 163 64 110 284
39833 163 36 110 2337
39999 164 40 110 2337
39999 445 36 110 545
39999 164 59 110 2337
39999 164 60 110 284
40166 163 64 110 284
40166 163 36 110 2337
40333 163 62 110 284
40333 163 36 110 2337
40333 163 59 110 2337
40499 445 36 110 545
40499 164 40 110 2337
40499 164 64 110 284
40666 163 36 110 2337
40666 163 67 110 284
40666 163 59 110 2337
40833 163 64 110 284
40833 163 36 110 2337
40999 164 40 110 2337
40999 278 36 110 545
40999 164 59 110 2337
40999 164 62 110 284
41166 163 64 110 284
41166 163 36 110 2337
41333 163 40 110 2337
41333 444 28 110 545
41333 163 59 110 2337
41333 163 59 110 284
41499 164 64 110 284
41499 164 36 110 2337
41666 163 62 110 284
41666 163 36 110 2337
41666 163 59 110 2337
41833 444 28 110 545
41833 163 40 110 2337
41833 163 64 110 284
41999 164 36 110 2337
41999 164 67 110 284
41999 164 59 110 2337
42166 163 64 110 284
42166 163 36 110 2337
42333 163 40 110 2337
42333 278 28 110 545
42333 163 59 110 2337
42333 163 62 110 284
42499 164 64 110 284
42499 80 40 110 2337
42583 80 40 110 2337
42666 163 40 110 2337
42666 2497 72 110 29
42666 163 57 110 2337
42666 445 29 110 545
42666 163 57 110 284
42833 163 64 110 284
42833 163 36 110 2337
42999 164 62 110 284
42999 164 36 110 2337
42999 164 59 110 2337
43166 445 29 110 545
43166 163 40 110 2337
43166 163 64 110 284
43333 163 36 110 2337
43333 163 67 110 284
43333 163 59 110 2337
43499 164 64 110 284
43499 164 36 110 2337
43666 163 40 110 2337
43666 278 29 110 545
43666 163 59 110 2337
43666 163 62 110 284
43833 163 64 110 284
43833 163 36 110 2337
43999 164 40 110 2337
43999 445 29 110 545
43999 164 59 110 2337
43999 164 57 110 284
44166 163 64 110 284
44166 163 36 110 2337
44333 163 62 110 284
44333 163 36 110 2337
44333 163 59 110 2337
44499 445 29 110 545
44499 164 40 110 2337
44499 164 64 110 284
44666 163 36 110 2337
44666 163 67 110 284
44666 163 59 110 2337
44833 163 64 110 284
44833 163 36 110 2337
44999 164 40 110 2337
44999 278 29 110 545
44999 164 59 110 2337
44999 164 62 110 284
45166 163 36 110 2337
45166 80 69 110 29
45166 163 64 110 284
45249 80 71 110 29
45333 163 40 110 2337
45333 1250 72 110 29
45333 163 59 110 2337
45333 444 29 110 545
45333 163 57 110 284
45499 164 64 110 284
45499 164 36 110 2337
45666 163 62 110 284
45666 163 36 110 2337
45666 163 59 110 2337
45833 444 29 110 545
45833 163 40 110 2337
45833 163 64 110 284
45999 164 36 110 2337
45999 164 67 110 284
45999 164 59 110 2337
46166 163 64 110 284
46166 163 36 110 2337
46333 163 40 110 2337
46333 278 29 110 545
46333 163 59 110 2337
46333 163 62 110 284
46499 164 64 110 284
46499 164 36 110 2337
46666 163 40 110 2337
46666 583 71 110 29
46666 163 59 110 2337
46666 445 31 110 545
46666 163 59 110 284
46833 163 64 110 284
46833 163 36 110 2337
46999 164 62 110 284
46999 164 36 110 2337
46999 164 59 110 2337
47166 445 31 110 545
47166 163 40 110 2337
47166 163 64 110 284
47333 163 36 110 2337
47333 278 72 110 29
47333 163 59 110 2337
47333 163 67 110 284
47499 164 64 110 284
47499 164 36 110 2337
47666 163 40 110 2337
47666 278 74 110 29
47666 163 59 110 2337
47666 278 31 110 545
47666 163 62 110 284
47833 163 64 110 284
47833 80 40 110 2337
47916 80 40 110 2337
47999 164 40 110 2337
47999 2584 76 110 29
47999 164 57 110 2337
47999 445 33 110 545
47999 164 57 110 284
48166 163 64 110 284
48166 163 36 110 2337
48333 163 62 110 284
48333 163 36 110 2337
48333 163 59 110 2337
48499 445 33 110 545
48499 164 40 110 2337
48499 164 64 110 284
48666 163 36 110 2337
48666 163 67 110 284
48666 163 59 110 2337
48833 163 64 110 284
48833 163 36 110 2337
48999 164 40 110 2337
48999 278 33 110 545
48999 164 59 110 2337
48999 164 62 110 284
49166 163 64 110 284
49166 163 36 110 2337
49333 163 40 110 2337
49333 444 33 110 545
49333 163 59 110 2337
49333 163 57 110 284
49499 164 64 110 284
49499 164 36 110 2337
49666 163 62 110 284
49666 163 36 110 2337
49666 163 59 110 2337
49833 444 33 110 545
49833 163 40 110 2337
49833 163 64 110 284
49999 164 36 110 2337
49999 164 67 110 284
49999 164 59 110 2337
50166 163 64 110 284
50166 163 36 110 2337
50333 163 40 110 2337
50333 278 33 110 545
50333 163 59 110 2337
50333 163 62 110 284
50499 164 64 110 284
50499 164 36 110 2337
50666 163 40 110 2337
50666 445 36 110 545
50666 163 59 110 2337
50666 163 60 110 284
50833 163 64 110 284
50833 163 36 110 2337
50999 164 62 110 284
50999 164 36 110 2337
50999 164 59 110 2337
51166 445 36 110 545
51166 163 40 110 2337
51166 163 64 110 284
51333 163 36 110 2337
51333 163 67 110 284
51333 163 59 110 2337
51499 164 64 110 284
51499 164 36 110 2337
51666 163 40 110 2337
51666 278 36 110 545
51666 163 59 110 2337
51666 163 62 110 284
51833 163 64 110 284
51833 163 36 110 2337
51999 164 40 110 2337
51999 445 28 110 545
51999 164 59 110 2337
51999 164 59 110 284
52166 163 64 110 284
52166 163 36 110 2337
52333 163 62 110 284
52333 163 36 110 2337
52333 163 59 110 2337
52499 445 28 110 545
52499 164 40 110 2337
52499 164 64 110 284
52666 163 36 110 2337
52666 163 67 110 284
52666 163 59 110 2337
52833 163 64 110 284
52833 163 36 110 2337
52999 164 40 110 2337
52999 278 28 110 545
52999 164 59 110 2337
52999 164 62 110 284
53166 163 64 110 284
53166 80 40 110 2337
53249 80 40 110 2337
53333 163 40 110 2337
53333 163 72 110 29
53333 163 57 110 2337
53333 444 29 110 545
53333 163 57 110 284
53499 164 36 110 2337
53499 164 71 110 29
53499 164 60 110 284
53666 163 36 110 2337
53666 163 72 110 29
53666 163 59 110 2337
53666 163 59 110 284
53833 163 40 110 2337
53833 330 71 110 29
53833 444 29 110 545
53833 163 60 110 284
53999 164 36 110 2337
53999 164 64 110 284
53999 164 59 110 2337
54166 445 69 110 29
54166 163 36 110 2337
54166 163 60 110 284
54333 163 40 110 2337
54333 278 29 110 545
54333 163 59 110 2337
54333 163 59 110 284
54499 164 60 110 284
54499 164 36 110 2337
54666 163 40 110 2337
54666 163 72 110 29
54666 163 59 110 2337
54666 445 29 110 545
54666 163 57 110 284
54833 163 36 110 2337
54833 163 71 110 29
54833 163 60 110 284
54999 164 36 110 2337
54999 164 72 110 29
54999 164 59 110 2337
54999 164 59 110 284
55166 163 40 110 2337
55166 330 71 110 29
55166 445 31 110 545
55166 163 60 110 284
55333 163 36 110 2337
55333 163 64 110 284
55333 163 59 110 2337
55499 445 69 110 29
55499 164 36 110 2337
55499 164 60 110 284
55666 163 40 110 2337
55666 278 31 110 545
55666 163 59 110 2337
55666 163 59 110 284
55833 163 60 110 284
55833 163 36 110 2337
55999 164 40 110 2337
55999 278 64 110 29
55999 164 59 110 2337
55999 445 33 110 545
55999 164 57 110 284
56166 163 60 110 284
56166 163 36 110 2337
56333 163 36 110 2337
56333 2250 69 110 29
56333 163 59 110 2337
56333 163 59 110 284
56499 445 33 110 545
56499 164 40 110 2337
56499 164 60 110 284
56666 163 36 110 2337
56666 163 64 110 284
56666 163 59 110 2337
56833 163 60 110 284
56833 163 36 110 2337
56999 164 40 110 2337
56999 278 33 110 545
56999 164 59 110 2337
56999 164 59 110 284
57166 163 60 110 284
57166 163 36 110 2337
57333 163 40 110 2337
57333 444 33 110 545
57333 163 59 110 2337
57333 163 57 110 284
57499 164 60 110 284
57499 164 36 110 2337
57666 163 59 110 284
57666 163 36 110 2337
57666 163 59 110 2337
57833 444 33 110 545
57833 163 40 110 2337
57833 163 60 110 284
57999 164 36 110 2337
57999 164 64 110 284
57999 164 59 110 2337
58166 163 60 110 284
58166 163 36 110 2337
58333 163 40 110 2337
58333 163 33 110 545
58333 163 59 110 2337
58333 163 59 110 284
58499 80 40 110 2337
58499 164 31 110 545
58499 164 60 110 284
58583 80 40 110 2337
58666 163 40 110 2337
58666 163 72 110 29
58666 163 57 110 2337
58666 445 29 110 545
58666 163 57 110 284
58833 163 36 110 2337
58833 163 71 110 29
58833 163 60 110 284
58999 164 36 110 2337
58999 164 72 110 29
58999 164 59 110 2337
58999 164 59 110 284
59166 163 40 110 2337
59166 330 71 110 29
59166 445 29 110 545
59166 163 60 110 284
59333 163 36 110 2337
59333 163 64 110 284
59333 163 59 110 2337
59499 445 69 110 29
59499 164 36 110 2337
59499 164 60 110 284
59666 163 40 110 2337
59666 278 29 110 545
59666 163 59 110 2337
59666 163 59 110 284
59833 163 60 110 284
59833 163 36 110 2337
59999 164 40 110 2337
59999 164 72 110 29
59999 164 59 110 2337
59999 445 29 110 545
59999 164 57 110 284
60166 163 36 110 2337
60166 163 71 110 29
60166 163 60 110 284
60333 163 36 110 2337
60333 163 72 110 29
60333 163 59 110 2337
60333 163 59 110 284
60499 164 40 110 2337
60499 330 71 110 29
60499 445 31 110 545
60499 164 60 110 284
60666 163 36 110 2337
60666 163 64 110 284
60666 163 59 110 2337
60833 330 72 110 29
60833 163 36 110 2337
60833 163 60 110 284
60999 164 40 110 2337
60999 278 31 110 545
60999 164 59 110 2337
60999 164 59 110 284
61166 163 36 110 2337
61166 163 74 110 29
61166 163 60 110 284
61333 163 40 110 2337
61333 2583 76 110 29
61333 163 59 110 2337
61333 444 33 110 545
61333 163 57 110 284
61499 164 61 110 284
61499 164 36 110 2337
61666 163 59 110 284
61666 163 36 110 2337
61666 163 59 110 2337
61833 444 33 110 545
61833 163 40 110 2337
61833 163 61 110 284
61999 164 36 110 2337
61999 164 64 110 284
61999 164 59 110 2337
62166 163 61 110 284
62166 163 36 110 2337
62333 163 40 110 2337
62333 278 33 110 545
62333 163 59 110 2337
62333 163 59 110 284
62499 164 61 110 284
62499 164 36 110 2337
62666 163 40 110 2337
62666 445 33 110 545
62666 163 59 110 2337
62666 163 57 110 284
62833 163 61 110 284
62833 163 36 110 2337
62999 164 59 110 284
62999 164 36 110 2337
62999 164 59 110 2337
63166 445 33 110 545
63166 163 40 110 2337
63166 163 61 110 284
63333 163 36 110 2337
63333 163 64 110 284
63333 163 59 110 2337
63499 164 61 110 284
63499 164 36 110 2337
63666 163 40 110 2337
63666 278 33 110 545
63666 163 59 110 2337
63666 163 59 110 284
63833 163 61 110 284
63833 80 40 110 2337
63916 80 40 110 2337
63999 164 40 110 2337
63999 164 72 110 29
63999 164 57 110 2337
63999 445 29 110 545
63999 164 57 110 284
64166 163 36 110 2337
64166 163 71 110 29
64166 163 60 110 284
64333 163 36 110 2337
64333 163 72 110 29
64333 163 59 110 2337
64333 163 59 110 284
64499 164 40 110 2337
64499 330 71 110 29
64499 445 29 110 545
64499 164 60 110 284
64666 163 36 110 2337
64666 163 64 110 284
64666 163 59 110 2337
64833 444 69 110 29
64833 163 36 110 2337
64833 163 60 110 284
64999 164 40 110 2337
64999 278 29 110 545
64999 164 59 110 2337
64999 164 59 110 284
65166 163 60 110 284
65166 163 36 110 2337
65333 163 40 110 2337
65333 163 72 110 29
65333 163 59 110 2337
65333 444 29 110 545
65333 163 57 110 284
65499 164 36 110 2337
65499 164 71 110 29
65499 164 60 110 284
65666 163 36 110 2337
65666 163 72 110 29
65666 163 59 110 2337
65666 163 59 110 284
65833 163 40 110 2337
65833 330 71 110 29
65833 444 31 110 545
65833 163 60 110 284
65999 164 36 110 2337
65999 164 64 110 284
65999 164 59 110 2337
66166 445 69 110 29
66166 163 36 110 2337
66166 163 60 110 284
66333 163 40 110 2337
66333 278 31 110 545
66333 163 59 110 2337
66333 163 59 110 284
66499 164 60 110 284
66499 164 36 110 2337
66666 163 40 110 2337
66666 278 64 110 29
66666 163 59 110 2337
66666 445 33 110 545
66666 163 57 110 284
66833 163 60 110 284
66833 163 36 110 2337
66999 164 36 110 2337
66999 2250 69 110 29
66999 164 59 110 2337
66999 164 59 110 284
67166 445 33 110 545
67166 163 40 110 2337
67166 163 60 110 284
67333 163 36 110 2337
67333 163 64 110 284
67333 163 59 110 2337
67499 164 60 110 284
67499 164 36 110 2337
67666 163 40 110 2337
67666 278 33 110 545
67666 163 59 110 2337
67666 163 59 110 284
67833 163 60 110 284
67833 163 36 110 2337
67999 164 40 110 2337
67999 445 33 110 545
67999 164 59 110 2337
67999 164 57 110 284
68166 163 60 110 284
68166 163 36 110 2337
68333 163 59 110 284
68333 163 36 110 2337
68333 163 59 110 2337
68499 445 33 110 545
68499 164 40 110 2337
68499 164 60 110 284
68666 163 36 110 2337
68666 163 64 110 284
68666 163 59 110 2337
68833 163 60 110 284
68833 163 36 110 2337
68999 164 40 110 2337
68999 164 33 110 545
68999 164 59 110 2337
68999 164 59 110 284
69166 80 40 110 2337
69166 163 31 110 545
69166 163 60 110 284
69249 80 40 110 2337
69333 163 40 110 2337
69333 163 72 110 29
69333 163 57 110 2337
69333 444 29 110 545
69333 163 57 110 284
69499 164 36 110 2337
69499 164 71 110 29
69499 164 60 110 284
69666 163 36 110 2337
69666 163 72 110 29
69666 163 59 110 2337
69666 163 59 110 284
69833 163 40 110 2337
69833 330 71 110 29
69833 444 29 110 545
69833 163 60 110 284
69999 164 36 110 2337
69999 164 64 110 284
69999 164 59 110 2337
70166 445 69 110 29
70166 163 36 110 2337
70166 163 60 110 284
70333 163 40 110 2337
70333 278 29 110 545
70333 163 59 110 2337
70333 163 59 110 284
70499 164 60 110 284
70499 164 36 110 2337
70666 163 40 110 2337
70666 163 72 110 29
70666 163 59 110 2337
70666 445 29 110 545
70666 163 57 110 284
70833 163 36 110 2337
70833 163 71 110 29
70833 163 60 110 284
70999 164 36 110 2337
70999 164 72 110 29
70999 164 59 110 2337
70999 164 59 110 284
71166 163 40 110 2337
71166 330 71 110 29
71166 445 31 110 545
71166 163 60 110 284
71333 163 36 110 2337
71333 163 64 110 284
71333 163 59 110 2337
71499 330 72 110 29
71499 164 36 110 2337
71499 164 60 110 284
71666 163 40 110 2337
71666 278 31 110 545
71666 163 59 110 2337
71666 163 59 110 284
71833 163 36 110 2337
71833 163 74 110 29
71833 163 60 110 284
71999 164 40 110 2337
71999 2584 76 110 29
71999 164 59 110 2337
71999 445 33 110 545
71999 164 57 110 284
72166 163 61 110 284
72166 163 36 110 2337
72333 163 59 110 284
72333 163 36 110 2337
72333 163 59 110 2337
72499 445 33 110 545
72499 164 40 110 2337
72499 164 61 110 284
72666 163 36 110 2337
72666 163 64 110 284
72666 163 59 110 2337
72833 163 61 110 284
72833 163 36 110 2337
72999 164 40 110 2337
72999 278 33 110 545
72999 164 59 110 2337
72999 164 59 110 284
73166 163 61 110 284
73166 163 36 110 2337
73333 163 40 110 2337
73333 444 33 110 545
73333 163 59 110 2337
73333 163 57 110 284
73499 164 61 110 284
73499 164 36 110 2337
73666 163 59 110 284
73666 163 36 110 2337
73666 163 59 110 2337
73833 444 33 110 545
73833 163 40 110 2337
73833 163 61 110 284
73999 164 36 110 2337
73999 164 64 110 284
73999 164 59 110 2337
74166 163 61 110 284
74166 163 36 110 2337
74333 163 40 110 2337
74333 278 33 110 545
74333 163 59 110 2337
74333 163 59 110 284
74499 164 61 110 284
74499 80 40 110 2337
74583 80 40 110 2337
74666 163 40 110 2337
74666 163 84 110 29
74666 163 57 110 2337
74666 445 29 110 545
74666 163 53 110 284
74833 163 36 110 2337
74833 163 81 110 29
74833 163 53 110 284
74999 164 36 110 2337
74999 164 77 110 29
74999 164 59 110 2337
74999 164 53 110 284
75166 163 40 110 2337
75166 163 72 110 29
75166 445 29 110 545
75166 163 53 110 284
75333 163 36 110 2337
75333 163 69 110 29
75333 163 59 110 2337
75333 163 53 110 284
75499 164 36 110 2337
75499 164 65 110 29
75499 164 53 110 284
75666 163 40 110 2337
75666 163 60 110 29
75666 163 59 110 2337
75666 278 29 110 545
75666 163 53 110 284
75833 163 36 110 2337
75833 163 57 110 29
75833 163 53 110 284
75999 164 40 110 2337
75999 164 86 110 29
75999 164 59 110 2337
75999 445 31 110 545
75999 164 55 110 284
76166 163 36 110 2337
76166 163 83 110 29
76166 163 55 110 284
76333 163 36 110 2337
76333 163 79 110 29
76333 163 59 110 2337
76333 163 55 110 284
76499 164 40 110 2337
76499 164 74 110 29
76499 445 31 110 545
76499 164 55 110 284
76666 163 36 110 2337
76666 163 71 110 29
76666 163 59 110 2337
76666 163 55 110 284
76833 163 36 110 2337
76833 163 67 110 29
76833 163 55 110 284
76999 164 40 110 2337
76999 164 62 110 29
76999 164 59 110 2337
76999 278 31 110 545
76999 164 55 110 284
77166 163 36 110 2337
77166 163 59 110 29
77166 163 55 110 284
77333 163 40 110 2337
77333 163 88 110 29
77333 163 59 110 2337
77333 444 33 110 545
77333 163 57 110 284
77499 164 36 110 2337
77499 164 85 110 29
77499 164 57 110 284
77666 163 36 110 2337
77666 163 81 110 29
77666 163 59 110 2337
77666 163 57 110 284
77833 163 40 110 2337
77833 163 76 110 29
77833 444 33 110 545
77833 163 57 110 284
77999 164 36 110 2337
77999 164 73 110 29
77999 164 59 110 2337
77999 164 57 110 284
78166 163 36 110 2337
78166 163 69 110 29
78166 163 57 110 284
78333 163 40 110 2337
78333 163 64 110 29
78333 163 59 110 2337
78333 278 33 110 545
78333 163 57 110 284
78499 164 36 110 2337
78499 164 61 110 29
78499 164 57 110 284
78666 163 40 110 2337
78666 163 57 110 29
78666 163 59 110 2337
78666 445 33 110 545
78666 163 57 110 284
78833 163 36 110 2337
78833 163 61 110 29
78833 163 57 110 284
78999 164 36 110 2337
78999 164 64 110 29
78999 164 59 110 2337
78999 164 57 110 284
79166 163 40 110 2337
79166 163 69 110 29
79166 445 33 110 545
79166 163 57 110 284
79333 163 36 110 2337
79333 163 73 110 29
79333 163 59 110 2337
79333 163 57 110 284
79499 164 36 110 2337
79499 164 76 110 29
79499 164 57 110 284
79666 163 40 110 2337
79666 163 81 110 29
79666 163 59 110 2337
79666 278 33 110 545
79666 163 57 110 284
79833 80 40 110 2337
79833 163 85 110 29
79833 163 57 110 284
79916 80 40 110 2337
79999 164 40 110 2337
79999 164 84 110 29
79999 164 57 110 2337
79999 445 29 110 545
79999 164 53 110 284
80166 163 36 110 2337
80166 163 81 110 29
80166 163 53 110 284
80333 163 36 110 2337
80333 163 77 110 29
80333 163 59 110 2337
80333 163 53 110 284
80499 164 40 110 2337
80499 164 72 110 29
80499 445 29 110 545
80499 164 53 110 284
80666 163 36 110 2337
80666 163 69 110 29
80666 163 59 110 2337
80666 163 53 110 284
80833 163 36 110 2337
80833 163 65 110 29
80833 163 53 110 284
80999 164 40 110 2337
80999 164 60 110 29
80999 164 59 110 2337
80999 278 29 110 545
80999 164 53 110 284
81166 163 36 110 2337
81166 163 57 110 29
81166 163 53 110 284
81333 163 40 110 2337
81333 163 86 110 29
81333 163 59 110 2337
81333 444 31 110 545
81333 163 55 110 284
81499 164 36 110 2337
81499 164 83 110 29
81499 164 55 110 284
81666 163 36 110 2337
81666 163 79 110 29
81666 163 59 110 2337
81666 163 55 110 284
81833 163 40 110 2337
81833 163 74 110 29
81833 444 31 110 545
81833 163 55 110 284
81999 164 36 110 2337
81999 164 71 110 29
81999 164 59 110 2337
81999 164 55 110 284
82166 163 36 110 2337
82166 163 67 110 29
82166 163 55 110 284
82333 163 40 110 2337
82333 163 62 110 29
82333 163 59 110 2337
82333 278 31 110 545
82333 163 55 110 284
82499 164 36 110 2337
82499 164 59 110 29
82499 164 55 110 284
82666 163 40 110 2337
82666 163 88 110 29
82666 163 59 110 2337
82666 445 33 110 545
82666 163 57 110 284
82833 163 36 110 2337
82833 163 85 110 29
82833 163 57 110 284
82999 164 36 110 2337
82999 164 81 110 29
82999 164 59 110 2337
82999 164 57 110 284
83166 163 40 110 2337
83166 163 76 110 29
83166 445 33 110 545
83166 163 57 110 284
83333 163 36 110 2337
83333 163 73 110 29
83333 163 59 110 2337
83333 163 57 110 284
83499 164 36 110 2337
83499 164 69 110 29
83499 164 57 110 284
83666 163 40 110 2337
83666 163 64 110 29
83666 163 59 110 2337
83666 278 33 110 545
83666 163 57 110 284
83833 163 36 110 2337
83833 163 61 110 29
83833 163 57 110 284
83999 164 40 110 2337
83999 164 57 110 29
83999 164 59 110 2337
83999 445 33 110 545
83999 164 57 110 284
84166 163 36 110 2337
84166 163 61 110 29
84166 163 57 110 284
84333 163 36 110 2337
84333 163 64 110 29
84333 163 59 110 2337
84333 163 57 110 284
84499 164 40 110 2337
84499 164 69 110 29
84499 445 33 110 545
84499 164 57 110 284
84666 163 36 110 2337
84666 163 73 110 29
84666 163 59 110 2337
84666 163 57 110 284
84833 163 36 110 2337
84833 163 76 110 29
84833 163 57 110 284
84999 164 40 110 2337
84999 164 81 110 29
84999 164 59 110 2337
84999 278 33 110 545
84999 164 57 110 284
85166 80 40 110 2337
85166 163 85 110 29
85166 163 57 110 284
85249 80 40 110 2337
85333 163 40 110 2337
85333 163 84 110 29
85333 163 57 110 2337
85333 444 29 110 545
85333 163 53 110 284
85499 164 36 110 2337
85499 164 81 110 29
85499 164 53 110 284
85666 163 36 110 2337
85666 163 77 110 29
85666 163 59 110 2337
85666 163 53 110 284
85833 163 40 110 2337
85833 163 72 110 29
85833 444 29 110 545
85833 163 53 110 284
85999 164 36 110 2337
85999 164 69 110 29
85999 164 59 110 2337
85999 164 53 110 284
86166 163 36 110 2337
86166 163 65 110 29
86166 163 53 110 284
86333 163 40 110 2337
86333 163 60 110 29
86333 163 59 110 2337
86333 278 29 110 545
86333 163 53 110 284
86499 164 36 110 2337
86499 164 57 110 29
86499 164 53 110 284
86666 163 40 110 2337
86666 163 86 110 29
86666 163 59 110 2337
86666 445 31 110 545
86666 163 55 110 284
86833 163 36 110 2337
86833 163 83 110 29
86833 163 55 110 284
86999 164 36 110 2337
86999 164 79 110 29
86999 164 59 110 2337
86999 164 55 110 284
87166 163 40 110 2337
87166 163 74 110 29
87166 445 31 110 545
87166 163 55 110 284
87333 163 36 110 2337
87333 163 71 110 29
87333 163 59 110 2337
87333 163 55 110 284
87499 164 36 110 2337
87499 164 67 110 29
87499 164 55 110 284
87666 163 40 110 2337
87666 163 62 110 29
87666 163 59 110 2337
87666 278 31 110 545
87666 163 55 110 284
87833 163 36 110 2337
87833 163 59 110 29
87833 163 55 110 284
87999 164 40 110 2337
87999 164 88 110 29
87999 164 59 110 2337
87999 445 33 110 545
87999 164 57 110 284
88166 163 36 110 2337
88166 163 85 110 29
88166 163 57 110 284
88333 163 36 110 2337
88333 163 81 110 29
88333 163 59 110 2337
88333 163 57 110 284
88499 164 40 110 2337
88499 164 76 110 29
88499 445 33 110 545
88499 164 57 110 284
88666 163 36 110 2337
88666 163 73 110 29
88666 163 59 110 2337
88666 163 57 110 284
88833 163 36 110 2337
88833 163 69 110 29
88833 163 57 110 284
88999 164 40 110 2337
88999 164 64 110 29
88999 164 59 110 2337
88999 278 33 110 545
88999 164 57 110 284
89166 163 36 110 2337
89166 163 61 110 29
89166 163 57 110 284
89333 163 40 110 2337
89333 163 57 110 29
89333 163 59 110 2337
89333 444 33 110 545
89333 163 57 110 284
89499 164 36 110 2337
89499 164 61 110 29
89499 164 57 110 284
89666 163 36 110 2337
89666 163 64 110 29
89666 163 59 110 2337
89666 163 57 110 284
89833 163 40 110 2337
89833 163 69 110 29
89833 444 33 110 545
89833 163 57 110 284
89999 164 36 110 2337
89999 164 73 110 29
89999 164 59 110 2337
89999 164 57 110 284
90166 163 36 110 2337
90166 163 76 110 29
90166 163 57 110 284
90333 163 40 110 2337
90333 163 81 110 29
90333 163 59 110 2337
90333 278 33 110 545
90333 163 57 110 284
90499 80 40 110 2337
90499 164 85 110 29
90499 164 57 110 284
90583 80 40 110 2337
90666 163 40 110 2337
90666 163 84 110 29
90666 163 57 110 2337
90666 445 29 110 545
90666 163 53 110 284
90833 163 36 110 2337
90833 163 81 110 29
90833 163 53 110 284
90999 164 36 110 2337
90999 164 77 110 29
90999 164 59 110 2337
90999 164 53 110 284
91166 163 40 110 2337
91166 163 72 110 29
91166 445 29 110 545
91166 163 53 110 284
91333 163 36 110 2337
91333 163 69 110 29
91333 163 59 110 2337
91333 163 53 110 284
91499 164 36 110 2337
91499 164 65 110 29
91499 164 53 110 284
91666 163 40 110 2337
91666 163 60 110 29
91666 163 59 110 2337
91666 278 29 110 545
91666 163 53 110 284
91833 163 36 110 2337
91833 163 57 110 29
91833 163 53 110 284
91999 164 40 110 2337
91999 164 86 110 29
91999 164 59 110 2337
91999 445 31 110 545
91999 164 55 110 284
92166 163 36 110 2337
92166 163 83 110 29
92166 163 55 110 284
92333 163 36 110 2337
92333 163 79 110 29
92333 163 59 110 2337
92333 163 55 110 284
92499 164 40 110 2337
92499 164 74 110 29
92499 445 31 110 545
92499 164 55 110 284
92666 163 36 110 2337
92666 163 71 110 29
92666 163 59 110 2337
92666 163 55 110 284
92833 163 36 110 2337
92833 163 67 110 29
92833 163 55 110 284
92999 164 40 110 2337
92999 164 62 110 29
92999 164 59 110 2337
92999 278 31 110 545
92999 164 55 110 284
93166 163 36 110 2337
93166 163 59 110 29
93166 163 55 110 284
93333 163 40 110 2337
93333 163 88 110 29
93333 163 59 110 2337
93333 444 33 110 545
93333 163 57 110 284
93499 164 36 110 2337
93499 164 85 110 29
93499 164 57 110 284
93666 163 36 110 2337
93666 163 81 110 29
93666 163 59 110 2337
93666 163 57 110 284
93833 163 40 110 2337
93833 163 76 110 29
93833 444 33 110 545
93833 163 57 110 284
93999 164 36 110 2337
93999 164 73 110 29
93999 164 59 110 2337
93999 164 57 110 284
94166 163 36 110 2337
94166 163 69 110 29
94166 163 57 110 284
94333 163 40 110 2337
94333 163 64 110 29
94333 163 59 110 2337
94333 278 33 110 545
94333 163 57 110 284
94499 164 36 110 2337
94499 164 61 110 29
94499 164 57 110 284
94666 163 40 110 2337
94666 163 57 110 29
94666 163 59 110 2337
94666 445 33 110 545
94666 163 57 110 284
94833 163 36 110 2337
94833 163 61 110 29
94833 163 57 110 284
94999 164 36 110 2337
94999 164 64 110 29
94999 164 59 110 2337
94999 164 57 110 284
95166 163 40 110 2337
95166 163 69 110 29
95166 445 33 110 545
95166 163 57 110 284
95333 163 36 110 2337
95333 163 73 110 29
95333 163 59 110 2337
95333 163 57 110 284
95499 164 36 110 2337
95499 164 76 110 29
95499 164 57 110 284
95666 163 40 110 2337
95666 163 81 110 29
95666 163 59 110 2337
95666 278 33 110 545
95666 163 57 110 284
95833 80 40 110 2337
95833 163 85 110 29
95833 163 57 110 284
95916 80 40 110 2337
